<?xml version="1.0" encoding="UTF-8" standalone="no"?>
<svg
   width="500"
   zoomAndPan="magnify"
   viewBox="0 0 375 374.999991"
   height="500"
   preserveAspectRatio="xMidYMid meet"
   version="1.0"
   id="svg38"
   sodipodi:docname="Logo Artisan’IA4.svg"
   inkscape:version="1.4.2 (f4327f4, 2025-05-13)"
   xmlns:inkscape="http://www.inkscape.org/namespaces/inkscape"
   xmlns:sodipodi="http://sodipodi.sourceforge.net/DTD/sodipodi-0.dtd"
   xmlns="http://www.w3.org/2000/svg"
   xmlns:svg="http://www.w3.org/2000/svg">
  <sodipodi:namedview
     id="namedview38"
     pagecolor="#ffffff"
     bordercolor="#000000"
     borderopacity="0.25"
     inkscape:showpageshadow="2"
     inkscape:pageopacity="0.0"
     inkscape:pagecheckerboard="0"
     inkscape:deskcolor="#d1d1d1"
     inkscape:zoom="1.4142136"
     inkscape:cx="208.5965"
     inkscape:cy="271.88256"
     inkscape:window-width="1920"
     inkscape:window-height="991"
     inkscape:window-x="-9"
     inkscape:window-y="-9"
     inkscape:window-maximized="1"
     inkscape:current-layer="svg38" />
  <defs
     id="defs3">
    <g
       id="g1" />
    <clipPath
       id="f5d9551fcc">
      <path
         d="M 85.78125 64.148438 L 196.03125 64.148438 L 196.03125 253.148438 L 85.78125 253.148438 Z M 85.78125 64.148438 "
         clip-rule="nonzero"
         id="path1" />
    </clipPath>
    <clipPath
       id="0428dbb219">
      <path
         d="M 130 109 L 196.03125 109 L 196.03125 209 L 130 209 Z M 130 109 "
         clip-rule="nonzero"
         id="path2" />
    </clipPath>
    <clipPath
       id="8e2aacc0ce">
      <path
         d="M 198 64.148438 L 287 64.148438 L 287 253.148438 L 198 253.148438 Z M 198 64.148438 "
         clip-rule="nonzero"
         id="path3" />
    </clipPath>
  </defs>
  <rect
     x="-37.5"
     width="450"
     fill="#ffffff"
     y="-37.499999"
     height="449.999989"
     fill-opacity="1"
     id="rect3"
     style="fill:none" />
  <rect
     x="-37.5"
     width="450"
     fill="#ffffff"
     y="-37.499999"
     height="449.999989"
     fill-opacity="1"
     id="rect4"
     style="fill:none;fill-opacity:0;opacity:1" />
  <g
     clip-path="url(#f5d9551fcc)"
     id="g4">
    <path
       fill="#1c1c1c"
       d="M 260.382812 139.054688 L 256.332031 139.054688 C 254.089844 139.054688 252.105469 137.601562 251.402344 135.488281 C 250.214844 131.921875 248.804688 128.445312 247.089844 125.144531 C 246.074219 123.117188 246.429688 120.695312 248.058594 119.066406 L 250.960938 116.164062 C 256.683594 110.441406 256.683594 101.0625 250.960938 95.339844 L 243.832031 88.296875 C 238.105469 82.570312 228.773438 82.570312 223.007812 88.296875 L 220.101562 91.199219 C 218.515625 92.785156 216.050781 93.183594 214.070312 92.167969 C 210.769531 90.496094 207.289062 89.042969 203.722656 87.855469 C 201.566406 87.152344 200.160156 85.167969 200.160156 82.925781 L 200.160156 78.875 C 200.160156 70.773438 193.554688 64.171875 185.453125 64.171875 L 175.460938 64.171875 C 167.359375 64.171875 160.757812 70.773438 160.757812 78.875 L 160.757812 82.925781 C 160.757812 85.167969 159.304688 87.152344 157.191406 87.855469 C 153.625 89.042969 150.148438 90.453125 146.84375 92.167969 C 144.820312 93.183594 142.398438 92.828125 140.769531 91.199219 L 137.863281 88.296875 C 132.140625 82.570312 122.761719 82.570312 117.039062 88.296875 L 109.953125 95.382812 C 104.230469 101.105469 104.230469 110.484375 109.953125 116.207031 L 112.859375 119.113281 C 114.441406 120.695312 114.839844 123.117188 113.828125 125.144531 C 112.152344 128.445312 110.699219 131.921875 109.511719 135.488281 C 108.808594 137.648438 106.828125 139.054688 104.582031 139.054688 L 100.53125 139.054688 C 92.386719 139.054688 85.78125 145.660156 85.78125 153.804688 L 85.78125 163.796875 C 85.78125 171.898438 92.386719 178.5 100.488281 178.5 L 104.539062 178.5 C 106.78125 178.5 108.765625 179.953125 109.46875 182.066406 C 110.65625 185.632812 112.066406 189.109375 113.78125 192.414062 C 114.796875 194.4375 114.441406 196.859375 112.8125 198.488281 L 109.910156 201.394531 C 104.183594 207.117188 104.183594 216.496094 109.910156 222.21875 L 117.039062 229.261719 C 122.761719 234.984375 132.097656 234.984375 137.863281 229.261719 L 140.769531 226.355469 C 142.355469 224.769531 144.820312 224.375 146.800781 225.386719 C 150.101562 227.058594 153.582031 228.511719 157.148438 229.703125 C 159.304688 230.40625 160.710938 232.386719 160.710938 234.632812 L 160.710938 238.726562 C 160.710938 246.828125 167.316406 253.429688 175.417969 253.429688 L 185.410156 253.429688 C 193.511719 253.429688 200.113281 246.828125 200.113281 238.726562 L 200.113281 234.632812 C 200.113281 232.386719 201.566406 230.40625 203.679688 229.703125 C 207.246094 228.511719 210.722656 227.105469 214.027344 225.386719 C 216.050781 224.375 218.472656 224.726562 220.101562 226.355469 L 223.007812 229.261719 C 228.730469 234.984375 238.105469 234.984375 243.832031 229.261719 L 250.917969 222.171875 C 256.640625 216.449219 256.640625 207.074219 250.917969 201.351562 L 248.011719 198.445312 C 246.429688 196.859375 246.03125 194.4375 247.042969 192.414062 C 248.71875 189.109375 250.167969 185.632812 251.359375 182.066406 C 252.0625 179.910156 254.042969 178.5 256.289062 178.5 L 260.339844 178.5 C 268.441406 178.5 275.042969 171.898438 275.042969 163.796875 L 275.042969 153.804688 C 275.085938 145.660156 268.484375 139.054688 260.382812 139.054688 Z M 265.621094 163.753906 C 265.621094 166.660156 263.246094 168.992188 260.382812 168.992188 L 256.332031 168.992188 C 249.992188 168.992188 244.402344 173.042969 242.421875 179.074219 C 241.410156 182.15625 240.132812 185.191406 238.679688 188.097656 C 235.816406 193.777344 236.875 200.601562 241.363281 205.136719 L 244.269531 208.042969 C 246.339844 210.109375 246.339844 213.414062 244.269531 215.480469 L 237.183594 222.570312 C 235.113281 224.640625 231.769531 224.59375 229.742188 222.570312 L 226.835938 219.664062 C 222.347656 215.171875 215.523438 214.074219 209.800781 216.976562 C 206.894531 218.429688 203.898438 219.707031 200.773438 220.71875 C 194.742188 222.703125 190.691406 228.292969 190.691406 234.632812 L 190.691406 238.726562 C 190.691406 241.632812 188.316406 243.964844 185.453125 243.964844 L 175.460938 243.964844 C 172.554688 243.964844 170.222656 241.589844 170.222656 238.726562 L 170.222656 234.632812 C 170.222656 228.292969 166.171875 222.703125 160.140625 220.71875 C 157.058594 219.707031 154.019531 218.429688 151.113281 216.976562 C 149.003906 215.921875 146.710938 215.394531 144.46875 215.394531 C 140.679688 215.394531 136.9375 216.890625 134.121094 219.707031 L 131.214844 222.613281 C 129.148438 224.640625 125.84375 224.683594 123.777344 222.613281 L 116.6875 215.527344 C 114.617188 213.457031 114.617188 210.15625 116.6875 208.085938 L 119.59375 205.179688 C 124.085938 200.6875 125.183594 193.867188 122.277344 188.140625 C 120.828125 185.238281 119.550781 182.242188 118.539062 179.117188 C 116.554688 173.085938 110.964844 169.035156 104.625 169.035156 L 100.574219 169.035156 C 97.667969 169.035156 95.335938 166.660156 95.335938 163.796875 L 95.335938 153.804688 C 95.335938 150.898438 97.714844 148.566406 100.574219 148.566406 L 104.625 148.566406 C 110.964844 148.566406 116.554688 144.515625 118.539062 138.484375 C 119.550781 135.402344 120.828125 132.363281 122.277344 129.457031 C 125.140625 123.777344 124.085938 116.957031 119.59375 112.421875 L 116.6875 109.515625 C 114.617188 107.445312 114.617188 104.144531 116.6875 102.074219 L 123.777344 94.988281 C 125.84375 92.917969 129.148438 92.917969 131.214844 94.988281 L 134.121094 97.894531 C 138.613281 102.382812 145.480469 103.484375 151.160156 100.578125 C 154.066406 99.125 157.058594 97.847656 160.183594 96.835938 C 166.214844 94.855469 170.265625 89.265625 170.265625 82.925781 L 170.265625 78.875 C 170.265625 75.96875 172.644531 73.636719 175.503906 73.636719 L 185.5 73.636719 C 188.402344 73.636719 190.738281 76.011719 190.738281 78.875 L 190.738281 82.925781 C 190.738281 89.265625 194.789062 94.855469 200.820312 96.835938 C 203.898438 97.847656 206.9375 99.125 209.84375 100.578125 C 215.523438 103.441406 222.347656 102.382812 226.882812 97.894531 L 229.785156 94.988281 C 231.8125 92.917969 235.15625 92.917969 237.226562 94.988281 L 244.316406 102.074219 C 246.382812 104.144531 246.382812 107.445312 244.316406 109.515625 L 241.410156 112.421875 C 236.917969 116.910156 235.816406 123.734375 238.722656 129.457031 C 240.175781 132.363281 241.453125 135.355469 242.464844 138.484375 C 244.445312 144.515625 250.039062 148.566406 256.378906 148.566406 L 260.425781 148.566406 C 263.332031 148.566406 265.667969 150.941406 265.667969 153.804688 L 265.667969 163.753906 Z M 265.621094 163.753906 "
       fill-opacity="1"
       fill-rule="nonzero"
       id="path4" />
  </g>
  <g
     clip-path="url(#0428dbb219)"
     id="g5">
    <path
       fill="#1c1c1c"
       d="M 180.433594 109.074219 C 153.050781 109.074219 130.730469 131.351562 130.730469 158.777344 C 130.730469 186.207031 153.050781 208.480469 180.433594 208.480469 C 207.820312 208.480469 230.140625 186.160156 230.140625 158.777344 C 230.140625 131.394531 207.820312 109.074219 180.433594 109.074219 Z M 180.433594 199.015625 C 158.246094 199.015625 140.195312 180.964844 140.195312 158.777344 C 140.195312 136.589844 158.246094 118.539062 180.433594 118.539062 C 202.625 118.539062 220.671875 136.589844 220.671875 158.777344 C 220.671875 180.964844 202.625 199.015625 180.433594 199.015625 Z M 180.433594 199.015625 "
       fill-opacity="1"
       fill-rule="nonzero"
       id="path5" />
  </g>
  <g
     clip-path="url(#8e2aacc0ce)"
     id="g6">
    <path
       fill="#1d4885"
       d="M 284.933594 158.261719 L 284.917969 158.074219 C 284.363281 153.214844 282.519531 150.410156 280.292969 148.597656 C 286.011719 142.613281 289.144531 130.902344 285.113281 119.75 C 281.585938 109.972656 272.445312 107.460938 267.320312 106.835938 C 267.699219 103.800781 267.335938 99.148438 263.820312 93.5 C 258.953125 85.679688 250.964844 85.828125 246.027344 86.539062 C 246.476562 81.898438 245.296875 77.589844 242.535156 73.90625 C 237.496094 67.203125 228.433594 64.148438 222.144531 64.148438 C 213.847656 64.148438 198.351562 70.898438 198.351562 87.15625 C 198.351562 87.238281 198.359375 87.3125 198.359375 87.390625 L 198.359375 234.074219 C 198.328125 238.816406 200.386719 243.375 204.15625 246.914062 C 208.527344 251.019531 214.84375 253.453125 220.960938 253.453125 C 221.480469 253.453125 222 253.433594 222.511719 253.398438 C 231.871094 252.757812 238.074219 246.570312 239.484375 236.695312 C 247.242188 235.765625 249.902344 228.90625 251.085938 224.296875 C 255.042969 224.144531 258.550781 222.671875 261.132812 220.039062 C 263.738281 217.382812 265.277344 213.632812 265.464844 209.652344 C 275.757812 208.167969 281.910156 202.121094 282.875 192.417969 C 283.605469 185.046875 281.84375 178.898438 277.632812 174.089844 C 281.703125 171.246094 285.308594 166.714844 284.933594 158.261719 Z M 208.710938 237.722656 C 207.320312 237.722656 206.191406 236.59375 206.191406 235.207031 C 206.191406 233.816406 207.320312 232.6875 208.710938 232.6875 C 210.097656 232.6875 211.226562 233.816406 211.226562 235.207031 C 211.226562 236.59375 210.097656 237.722656 208.710938 237.722656 Z M 207.515625 239.949219 L 207.515625 242.5625 C 206.269531 241.308594 204.964844 239.554688 204.285156 237.292969 C 204.90625 238.601562 206.082031 239.585938 207.515625 239.949219 Z M 271.9375 171.152344 L 268.304688 173.042969 L 271.449219 175.664062 C 274.464844 178.179688 278.367188 182.59375 277.445312 191.878906 C 276.660156 199.738281 271.769531 203.863281 262.484375 204.476562 L 259.644531 204.667969 L 259.953125 207.496094 C 260.320312 210.851562 259.304688 214.109375 257.238281 216.21875 C 255.703125 217.78125 253.65625 218.664062 251.230469 218.820312 L 250.371094 190.355469 L 258.292969 183.160156 C 259.300781 183.847656 260.519531 184.253906 261.832031 184.253906 C 265.316406 184.253906 268.148438 181.417969 268.148438 177.9375 C 268.148438 174.453125 265.316406 171.621094 261.832031 171.621094 C 258.351562 171.621094 255.515625 174.453125 255.515625 177.9375 C 255.515625 179.242188 255.917969 180.460938 256.601562 181.46875 L 247.949219 189.324219 L 248.839844 218.765625 L 246.785156 218.582031 L 246.269531 220.929688 C 245.070312 226.378906 243.601562 230.898438 238.386719 231.3125 L 238.386719 206.679688 L 234.929688 203.4375 L 234.929688 190.925781 L 242.523438 183.441406 C 243.320312 184 244.285156 184.335938 245.328125 184.335938 C 248.035156 184.335938 250.238281 182.132812 250.238281 179.425781 C 250.238281 176.722656 248.035156 174.519531 245.328125 174.519531 C 242.621094 174.519531 240.421875 176.722656 240.421875 179.425781 C 240.421875 180.21875 240.628906 180.957031 240.964844 181.621094 L 232.539062 189.929688 L 232.539062 201.195312 L 228.015625 196.953125 L 228.015625 179.871094 C 230.144531 179.335938 231.730469 177.421875 231.730469 175.128906 C 231.730469 172.425781 229.527344 170.222656 226.820312 170.222656 C 224.117188 170.222656 221.914062 172.425781 221.914062 175.128906 C 221.914062 177.421875 223.5 179.335938 225.625 179.871094 L 225.625 197.988281 L 235.996094 207.714844 L 235.996094 231.523438 C 235.746094 231.625 235.519531 231.765625 235.3125 231.9375 C 235.269531 231.96875 235.226562 231.996094 235.1875 232.03125 C 235.179688 232.039062 235.171875 232.050781 235.160156 232.058594 C 234.785156 232.410156 234.511719 232.867188 234.378906 233.386719 C 234.367188 233.441406 234.363281 233.503906 234.351562 233.558594 C 234.332031 233.671875 234.304688 233.785156 234.296875 233.902344 C 233.933594 239.996094 231.636719 244.265625 227.699219 246.414062 L 222.898438 241.976562 L 222.898438 230.21875 C 225.023438 229.683594 226.609375 227.769531 226.609375 225.476562 C 226.609375 222.773438 224.40625 220.570312 221.703125 220.570312 C 218.996094 220.570312 216.792969 222.769531 216.792969 225.476562 C 216.792969 227.765625 218.378906 229.683594 220.507812 230.21875 L 220.507812 243.027344 L 225.257812 247.40625 C 224.285156 247.6875 223.25 247.878906 222.136719 247.957031 C 217.890625 248.242188 213.410156 246.949219 209.90625 244.53125 L 209.90625 239.949219 C 212.03125 239.410156 213.617188 237.496094 213.617188 235.207031 C 213.617188 232.5 211.414062 230.296875 208.710938 230.296875 C 206.175781 230.296875 204.109375 232.234375 203.851562 234.699219 C 203.84375 234.496094 203.8125 234.300781 203.816406 234.089844 L 203.816406 210.777344 L 205.988281 213.132812 L 219.347656 213.132812 C 219.910156 215.351562 221.90625 217.003906 224.296875 217.003906 C 227.121094 217.003906 229.417969 214.707031 229.417969 211.886719 C 229.417969 209.0625 227.121094 206.765625 224.296875 206.765625 C 221.90625 206.765625 219.910156 208.421875 219.347656 210.640625 L 207.082031 210.640625 L 203.816406 207.101562 L 203.816406 192 L 208.367188 192 C 208.925781 194.457031 211.117188 196.300781 213.742188 196.300781 C 216.785156 196.300781 219.261719 193.824219 219.261719 190.78125 C 219.261719 187.738281 216.785156 185.261719 213.742188 185.261719 C 211.117188 185.261719 208.925781 187.105469 208.367188 189.566406 L 203.816406 189.566406 L 203.816406 153.769531 C 206.59375 153.753906 209.230469 153.75 211.996094 153.75 L 211.996094 165.8125 C 210.4375 166.164062 209.265625 167.558594 209.265625 169.222656 C 209.265625 171.152344 210.835938 172.722656 212.769531 172.722656 C 214.699219 172.722656 216.269531 171.152344 216.269531 169.222656 C 216.269531 167.558594 215.101562 166.167969 213.542969 165.8125 L 213.542969 154.273438 C 216.355469 157.105469 219.089844 159.933594 221.839844 162.78125 L 222.902344 163.882812 L 224.015625 162.808594 L 222.953125 161.707031 C 221.414062 160.109375 219.875 158.519531 218.328125 156.929688 L 230.386719 156.929688 C 230.738281 158.492188 232.128906 159.660156 233.796875 159.660156 C 235.726562 159.660156 237.296875 158.089844 237.296875 156.15625 C 237.296875 154.226562 235.726562 152.65625 233.796875 152.65625 C 232.128906 152.65625 230.738281 153.824219 230.386719 155.382812 L 216.804688 155.382812 C 215.835938 154.398438 214.875 153.414062 213.890625 152.429688 L 213.664062 152.203125 L 213.34375 152.203125 C 210.0625 152.203125 207.042969 152.203125 203.816406 152.222656 L 203.816406 148.429688 C 212.710938 148.355469 221.628906 148.378906 230.382812 148.507812 C 230.734375 150.074219 232.125 151.246094 233.796875 151.246094 C 235.726562 151.246094 237.296875 149.675781 237.296875 147.742188 C 237.296875 145.8125 235.726562 144.242188 233.796875 144.242188 C 232.132812 144.242188 230.746094 145.40625 230.386719 146.960938 C 221.632812 146.832031 212.710938 146.8125 203.816406 146.882812 L 203.816406 140.203125 L 206.039062 142.609375 L 214.328125 142.609375 C 214.675781 143.988281 215.914062 145.015625 217.398438 145.015625 C 219.148438 145.015625 220.574219 143.589844 220.574219 141.835938 C 220.574219 140.085938 219.148438 138.660156 217.398438 138.660156 C 215.914062 138.660156 214.675781 139.6875 214.328125 141.0625 L 206.71875 141.0625 L 203.816406 137.921875 L 203.816406 129.253906 L 207.652344 127.445312 L 222.753906 133.054688 L 242.90625 123.546875 C 243.421875 124.210938 244.109375 124.722656 244.921875 125.011719 C 245.417969 125.191406 245.929688 125.28125 246.441406 125.28125 C 247.09375 125.28125 247.746094 125.136719 248.355469 124.847656 C 250.59375 123.792969 251.558594 121.109375 250.5 118.867188 C 249.988281 117.785156 249.085938 116.960938 247.957031 116.554688 C 246.828125 116.148438 245.605469 116.207031 244.523438 116.722656 C 243.433594 117.230469 242.613281 118.136719 242.210938 119.265625 C 241.917969 120.078125 241.875 120.933594 242.058594 121.753906 L 222.660156 130.902344 L 210.164062 126.261719 L 221.953125 120.699219 L 225.335938 111.121094 L 240.617188 103.914062 C 241.476562 105.007812 242.773438 105.65625 244.136719 105.65625 C 244.777344 105.65625 245.425781 105.515625 246.042969 105.226562 C 248.285156 104.171875 249.246094 101.488281 248.191406 99.246094 C 247.132812 97.003906 244.449219 96.042969 242.210938 97.101562 C 240.28125 98.011719 239.304688 100.128906 239.746094 102.132812 L 223.742188 109.683594 L 220.359375 119.257812 L 203.816406 127.0625 L 203.816406 102.902344 C 204.816406 104.007812 205.804688 104.847656 206.644531 105.449219 C 207.09375 105.773438 211.085938 108.585938 213.550781 107.769531 C 214.980469 107.292969 215.75 105.746094 215.273438 104.316406 C 214.894531 103.175781 213.828125 102.449219 212.6875 102.449219 C 212.664062 102.449219 212.648438 102.449219 212.628906 102.453125 C 211.679688 102.160156 203.894531 99.324219 203.816406 87.328125 L 203.816406 87.148438 C 203.816406 87.136719 203.8125 87.125 203.8125 87.109375 C 203.84375 74.996094 214.859375 70.46875 220.558594 69.730469 L 218.804688 71.347656 L 218.804688 84.429688 C 216.652344 84.886719 215.03125 86.800781 215.03125 89.085938 C 215.03125 91.714844 217.167969 93.851562 219.796875 93.851562 C 222.421875 93.851562 224.5625 91.714844 224.5625 89.085938 C 224.5625 86.800781 222.941406 84.886719 220.789062 84.429688 L 220.789062 72.21875 L 223.53125 69.6875 C 228.503906 70.097656 234.753906 72.636719 238.167969 77.183594 C 240.566406 80.371094 241.21875 84.148438 240.160156 88.40625 L 236.992188 91.484375 C 235.914062 92.535156 235.890625 94.261719 236.941406 95.34375 C 237.476562 95.894531 238.1875 96.167969 238.894531 96.167969 C 239.582031 96.167969 240.265625 95.914062 240.796875 95.398438 L 243.824219 92.457031 C 244.09375 92.410156 244.375 92.359375 244.6875 92.300781 C 249.878906 91.34375 255.703125 90.789062 259.1875 96.382812 C 262.964844 102.449219 262 106.523438 261.585938 107.691406 L 258.777344 110.0625 C 257.628906 111.035156 257.480469 112.757812 258.457031 113.90625 C 258.996094 114.546875 259.765625 114.875 260.542969 114.875 C 261.164062 114.875 261.789062 114.664062 262.300781 114.230469 L 264.824219 112.097656 C 267.667969 112.195312 276.542969 113.160156 279.765625 121.113281 L 256.128906 121.113281 L 242.742188 134.898438 L 242.742188 148.835938 C 240.394531 149.367188 238.632812 151.464844 238.632812 153.96875 C 238.632812 156.878906 241 159.246094 243.910156 159.246094 C 246.816406 159.246094 249.183594 156.878906 249.183594 153.96875 C 249.183594 151.464844 247.421875 149.367188 245.074219 148.835938 L 245.074219 135.84375 L 257.113281 123.441406 L 280.558594 123.441406 C 282.230469 129.5 281.410156 135.421875 279.492188 139.847656 L 260.503906 139.847656 L 252.75 148.796875 L 252.75 157.359375 C 250.402344 157.890625 248.640625 159.984375 248.640625 162.492188 C 248.640625 165.398438 251.007812 167.765625 253.914062 167.765625 C 256.824219 167.765625 259.191406 165.398438 259.191406 162.492188 C 259.191406 159.984375 257.429688 157.890625 255.082031 157.359375 L 255.082031 149.664062 L 261.566406 142.175781 L 278.304688 142.175781 C 277.242188 143.953125 276.003906 145.335938 274.722656 146.195312 L 266.957031 146.195312 C 265.449219 146.195312 264.226562 147.417969 264.226562 148.925781 C 264.226562 150.433594 265.449219 151.652344 266.957031 151.652344 L 274.90625 151.652344 C 277.535156 152.917969 278.996094 154.464844 279.488281 158.597656 C 279.769531 165.625 276.808594 168.613281 271.9375 171.152344 Z M 257.910156 177.9375 C 257.910156 175.769531 259.667969 174.011719 261.832031 174.011719 C 264 174.011719 265.757812 175.769531 265.757812 177.9375 C 265.757812 180.101562 264 181.863281 261.832031 181.863281 C 259.667969 181.863281 257.910156 180.101562 257.910156 177.9375 Z M 242.8125 179.425781 C 242.8125 178.035156 243.941406 176.910156 245.328125 176.910156 C 246.71875 176.910156 247.847656 178.035156 247.847656 179.425781 C 247.847656 180.816406 246.71875 181.941406 245.328125 181.941406 C 243.941406 181.941406 242.8125 180.816406 242.8125 179.425781 Z M 226.824219 177.648438 C 225.433594 177.648438 224.304688 176.519531 224.304688 175.128906 C 224.304688 173.742188 225.433594 172.613281 226.824219 172.613281 C 228.210938 172.613281 229.339844 173.742188 229.339844 175.128906 C 229.339844 176.519531 228.210938 177.648438 226.824219 177.648438 Z M 221.703125 227.992188 C 220.3125 227.992188 219.1875 226.867188 219.1875 225.476562 C 219.1875 224.085938 220.3125 222.960938 221.703125 222.960938 C 223.09375 222.960938 224.21875 224.085938 224.21875 225.476562 C 224.21875 226.867188 223.09375 227.992188 221.703125 227.992188 Z M 221.671875 211.886719 C 221.671875 210.4375 222.847656 209.261719 224.296875 209.261719 C 225.746094 209.261719 226.921875 210.4375 226.921875 211.886719 C 226.921875 213.335938 225.746094 214.511719 224.296875 214.511719 C 222.847656 214.511719 221.671875 213.335938 221.671875 211.886719 Z M 210.660156 190.785156 C 210.660156 189.082031 212.042969 187.699219 213.742188 187.699219 C 215.441406 187.699219 216.824219 189.085938 216.824219 190.785156 C 216.824219 192.484375 215.441406 193.867188 213.742188 193.867188 C 212.042969 193.863281 210.660156 192.484375 210.660156 190.785156 Z M 212.769531 167.265625 C 213.847656 167.265625 214.726562 168.144531 214.726562 169.222656 C 214.726562 170.300781 213.847656 171.179688 212.769531 171.179688 C 211.691406 171.179688 210.8125 170.300781 210.8125 169.222656 C 210.8125 168.144531 211.691406 167.265625 212.769531 167.265625 Z M 231.839844 156.160156 C 231.839844 155.078125 232.71875 154.203125 233.796875 154.203125 C 234.875 154.203125 235.753906 155.078125 235.753906 156.160156 C 235.753906 157.238281 234.875 158.113281 233.796875 158.113281 C 232.71875 158.113281 231.839844 157.238281 231.839844 156.160156 Z M 231.839844 147.746094 C 231.839844 146.667969 232.71875 145.789062 233.796875 145.789062 C 234.875 145.789062 235.753906 146.667969 235.753906 147.746094 C 235.753906 148.824219 234.875 149.699219 233.796875 149.699219 C 232.71875 149.699219 231.839844 148.824219 231.839844 147.746094 Z M 215.769531 141.835938 C 215.769531 140.9375 216.5 140.207031 217.398438 140.207031 C 218.296875 140.207031 219.027344 140.9375 219.027344 141.835938 C 219.027344 142.734375 218.296875 143.46875 217.398438 143.46875 C 216.5 143.46875 215.769531 142.738281 215.769531 141.835938 Z M 244.078125 119.9375 C 244.300781 119.304688 244.761719 118.800781 245.367188 118.515625 C 245.710938 118.355469 246.070312 118.273438 246.4375 118.273438 C 246.722656 118.273438 247.007812 118.324219 247.285156 118.421875 C 247.917969 118.648438 248.421875 119.109375 248.707031 119.714844 C 249.296875 120.964844 248.757812 122.460938 247.507812 123.054688 C 246.902344 123.335938 246.222656 123.375 245.589844 123.144531 C 244.960938 122.917969 244.457031 122.460938 244.167969 121.855469 C 243.882812 121.25 243.847656 120.566406 244.078125 119.9375 Z M 243.054688 98.894531 C 243.398438 98.730469 243.765625 98.65625 244.125 98.65625 C 245.0625 98.65625 245.96875 99.1875 246.398438 100.089844 C 246.988281 101.34375 246.449219 102.84375 245.199219 103.433594 C 243.945312 104.023438 242.445312 103.484375 241.855469 102.234375 C 241.265625 100.984375 241.804688 99.484375 243.054688 98.894531 Z M 219.796875 86.308594 C 221.328125 86.308594 222.578125 87.554688 222.578125 89.085938 C 222.578125 90.621094 221.328125 91.867188 219.796875 91.867188 C 218.261719 91.867188 217.015625 90.621094 217.015625 89.085938 C 217.015625 87.554688 218.261719 86.308594 219.796875 86.308594 Z M 243.90625 151.023438 C 245.53125 151.023438 246.851562 152.347656 246.851562 153.96875 C 246.851562 155.59375 245.53125 156.914062 243.90625 156.914062 C 242.285156 156.914062 240.964844 155.59375 240.964844 153.96875 C 240.960938 152.347656 242.285156 151.023438 243.90625 151.023438 Z M 253.914062 159.546875 C 255.535156 159.546875 256.859375 160.867188 256.859375 162.492188 C 256.859375 164.113281 255.535156 165.4375 253.914062 165.4375 C 252.289062 165.4375 250.96875 164.113281 250.96875 162.492188 C 250.96875 160.867188 252.289062 159.546875 253.914062 159.546875 Z M 253.914062 159.546875 "
       fill-opacity="1"
       fill-rule="nonzero"
       id="path6" />
  </g>
  <path
     stroke-linecap="butt"
     fill="none"
     stroke-linejoin="miter"
     d="M 193.03027,69.669922 V 115.37696"
     stroke="#1c1c1c"
     stroke-width="6"
     stroke-opacity="1"
     stroke-miterlimit="4"
     id="path7" />
  <path
     stroke-linecap="butt"
     fill="none"
     stroke-linejoin="miter"
     d="m 193.0319,199.85765 v 44.35547"
     stroke="#1c1c1c"
     stroke-width="6"
     stroke-opacity="1"
     stroke-miterlimit="4"
     id="path8" />
  <g
     fill="#1c1c1c"
     fill-opacity="1"
     id="g11">
    <g
       transform="translate(78.267461, 236.122722)"
       id="g10">
      <g
         id="g9">
        <path
           d="M 8.09375 0.984375 L 7.015625 1.390625 C 6.390625 1.597656 5.972656 1.828125 5.765625 2.078125 C 5.566406 2.335938 5.472656 2.585938 5.484375 2.828125 C 5.492188 3.066406 5.492188 3.300781 5.484375 3.53125 C 5.484375 3.769531 5.363281 3.992188 5.125 4.203125 C 4.84375 4.460938 4.550781 4.519531 4.25 4.375 C 3.945312 4.226562 3.644531 3.988281 3.34375 3.65625 L 1.3125 1.421875 C 0.9375 1.003906 0.6875 0.625 0.5625 0.28125 C 0.4375 -0.0507812 0.507812 -0.34375 0.78125 -0.59375 C 1.019531 -0.800781 1.265625 -0.890625 1.515625 -0.859375 C 1.773438 -0.835938 2.070312 -0.773438 2.40625 -0.671875 C 2.75 -0.566406 3.132812 -0.5 3.5625 -0.46875 C 3.988281 -0.4375 4.488281 -0.535156 5.0625 -0.765625 L 19.125 -5.90625 C 19.675781 -6.132812 20.035156 -6.375 20.203125 -6.625 C 20.378906 -6.875 20.472656 -7.140625 20.484375 -7.421875 C 20.492188 -7.710938 20.507812 -7.992188 20.53125 -8.265625 C 20.5625 -8.535156 20.695312 -8.78125 20.9375 -9 C 21.1875 -9.21875 21.4375 -9.300781 21.6875 -9.25 C 21.945312 -9.207031 22.179688 -9.066406 22.390625 -8.828125 L 25.078125 -5.875 C 25.503906 -5.394531 25.582031 -4.847656 25.3125 -4.234375 L 17.15625 12.3125 C 16.851562 12.96875 16.675781 13.503906 16.625 13.921875 C 16.582031 14.347656 16.578125 14.703125 16.609375 14.984375 C 16.648438 15.265625 16.65625 15.507812 16.625 15.71875 C 16.601562 15.9375 16.472656 16.15625 16.234375 16.375 C 15.941406 16.632812 15.65625 16.71875 15.375 16.625 C 15.09375 16.539062 14.726562 16.25 14.28125 15.75 L 10.328125 11.390625 C 9.941406 10.960938 9.710938 10.597656 9.640625 10.296875 C 9.566406 10.003906 9.675781 9.726562 9.96875 9.46875 C 10.21875 9.238281 10.472656 9.144531 10.734375 9.1875 C 11.003906 9.238281 11.285156 9.296875 11.578125 9.359375 C 11.867188 9.421875 12.148438 9.378906 12.421875 9.234375 C 12.703125 9.085938 12.992188 8.695312 13.296875 8.0625 L 13.65625 7.375 C 13.789062 7.125 13.875 6.910156 13.90625 6.734375 C 13.9375 6.554688 13.890625 6.351562 13.765625 6.125 C 13.648438 5.90625 13.414062 5.59375 13.0625 5.1875 C 12.707031 4.78125 12.203125 4.21875 11.546875 3.5 C 10.898438 2.78125 10.394531 2.226562 10.03125 1.84375 C 9.675781 1.46875 9.394531 1.207031 9.1875 1.0625 C 8.976562 0.914062 8.796875 0.847656 8.640625 0.859375 C 8.492188 0.867188 8.3125 0.910156 8.09375 0.984375 Z M 13.328125 1.953125 C 13.972656 2.671875 14.4375 3.164062 14.71875 3.4375 C 15 3.71875 15.195312 3.820312 15.3125 3.75 C 15.425781 3.6875 15.554688 3.53125 15.703125 3.28125 L 18.84375 -3.015625 L 12.421875 -0.640625 C 12.078125 -0.503906 11.851562 -0.375 11.75 -0.25 C 11.65625 -0.132812 11.726562 0.078125 11.96875 0.390625 C 12.21875 0.710938 12.671875 1.234375 13.328125 1.953125 Z M 13.328125 1.953125 "
           id="path9" />
      </g>
    </g>
  </g>
  <g
     fill="#1c1c1c"
     fill-opacity="1"
     id="g14">
    <g
       transform="translate(99.387885, 258.197226)"
       id="g13">
      <g
         id="g12">
        <path
           d="M 18.796875 3.21875 L 18.421875 7.578125 C 18.347656 8.242188 18.367188 8.785156 18.484375 9.203125 C 18.597656 9.628906 18.710938 9.976562 18.828125 10.25 C 18.953125 10.53125 19.019531 10.800781 19.03125 11.0625 C 19.039062 11.320312 18.9375 11.609375 18.71875 11.921875 C 18.5 12.234375 18.234375 12.375 17.921875 12.34375 C 17.617188 12.3125 17.1875 12.097656 16.625 11.703125 L 12.21875 8.609375 C 11.800781 8.316406 11.53125 8.035156 11.40625 7.765625 C 11.289062 7.492188 11.34375 7.203125 11.5625 6.890625 C 11.75 6.628906 11.972656 6.453125 12.234375 6.359375 C 12.492188 6.265625 12.753906 6.164062 13.015625 6.0625 C 13.285156 5.96875 13.515625 5.796875 13.703125 5.546875 C 13.898438 5.304688 14.03125 4.90625 14.09375 4.34375 L 14.359375 1.34375 C 14.171875 1.226562 13.988281 1.109375 13.8125 0.984375 C 13.632812 0.867188 13.453125 0.742188 13.265625 0.609375 L 11.421875 -0.703125 C 11.066406 -0.941406 10.769531 -0.882812 10.53125 -0.53125 L 10.078125 0.09375 C 9.515625 0.90625 9.1875 1.554688 9.09375 2.046875 C 9 2.546875 9.007812 2.960938 9.125 3.296875 C 9.25 3.640625 9.34375 3.953125 9.40625 4.234375 C 9.476562 4.515625 9.390625 4.828125 9.140625 5.171875 C 8.921875 5.484375 8.65625 5.625 8.34375 5.59375 C 8.039062 5.570312 7.59375 5.351562 7 4.9375 L 2.1875 1.53125 C 1.625 1.132812 1.265625 0.789062 1.109375 0.5 C 0.960938 0.207031 1 -0.09375 1.21875 -0.40625 C 1.414062 -0.6875 1.628906 -0.859375 1.859375 -0.921875 C 2.085938 -0.984375 2.328125 -1.007812 2.578125 -1 C 2.835938 -0.988281 3.128906 -1.007812 3.453125 -1.0625 C 3.773438 -1.125 4.117188 -1.289062 4.484375 -1.5625 C 4.859375 -1.84375 5.273438 -2.3125 5.734375 -2.96875 L 11.953125 -11.796875 C 12.179688 -12.109375 12.359375 -12.363281 12.484375 -12.5625 C 12.617188 -12.769531 12.726562 -12.96875 12.8125 -13.15625 C 13.070312 -13.664062 13.1875 -14.097656 13.15625 -14.453125 C 13.132812 -14.816406 13.066406 -15.144531 12.953125 -15.4375 C 12.835938 -15.726562 12.757812 -16.003906 12.71875 -16.265625 C 12.6875 -16.523438 12.78125 -16.8125 13 -17.125 C 13.21875 -17.4375 13.488281 -17.570312 13.8125 -17.53125 C 14.144531 -17.488281 14.59375 -17.269531 15.15625 -16.875 L 21.328125 -12.515625 C 23.191406 -11.203125 24.566406 -9.804688 25.453125 -8.328125 C 26.335938 -6.859375 26.757812 -5.390625 26.71875 -3.921875 C 26.6875 -2.453125 26.195312 -1.050781 25.25 0.28125 C 23.550781 2.695312 21.398438 3.675781 18.796875 3.21875 Z M 14.3125 -1.375 C 15.550781 -0.5 16.710938 -0.175781 17.796875 -0.40625 C 18.878906 -0.644531 19.816406 -1.320312 20.609375 -2.4375 C 21.398438 -3.5625 21.875 -4.660156 22.03125 -5.734375 C 22.1875 -6.804688 22.078125 -7.785156 21.703125 -8.671875 C 21.328125 -9.566406 20.734375 -10.296875 19.921875 -10.859375 C 19.304688 -11.296875 18.882812 -11.523438 18.65625 -11.546875 C 18.425781 -11.566406 18.210938 -11.4375 18.015625 -11.15625 L 12.796875 -3.765625 C 12.566406 -3.429688 12.570312 -3.082031 12.8125 -2.71875 C 13.050781 -2.351562 13.550781 -1.90625 14.3125 -1.375 Z M 14.3125 -1.375 "
           id="path11" />
      </g>
    </g>
  </g>
  <g
     fill="#1c1c1c"
     fill-opacity="1"
     id="g17">
    <g
       transform="translate(124.176242, 274.643317)"
       id="g16">
      <g
         id="g15">
        <path
           d="M 19.453125 -12.015625 L 14.390625 -0.109375 C 14.003906 0.804688 13.816406 1.519531 13.828125 2.03125 C 13.835938 2.539062 13.9375 2.945312 14.125 3.25 C 14.3125 3.550781 14.46875 3.832031 14.59375 4.09375 C 14.71875 4.351562 14.695312 4.675781 14.53125 5.0625 C 14.375 5.414062 14.144531 5.609375 13.84375 5.640625 C 13.539062 5.679688 13.050781 5.554688 12.375 5.265625 L 6.953125 2.96875 C 6.328125 2.695312 5.90625 2.429688 5.6875 2.171875 C 5.476562 1.921875 5.453125 1.617188 5.609375 1.265625 C 5.742188 0.953125 5.914062 0.738281 6.125 0.625 C 6.332031 0.519531 6.566406 0.445312 6.828125 0.40625 C 7.085938 0.363281 7.363281 0.273438 7.65625 0.140625 C 7.957031 0.00390625 8.257812 -0.234375 8.5625 -0.578125 C 8.875 -0.921875 9.1875 -1.460938 9.5 -2.203125 L 14.5625 -14.109375 C 14.914062 -14.929688 14.6875 -15.507812 13.875 -15.84375 C 13.28125 -16.101562 12.738281 -16.191406 12.25 -16.109375 C 11.769531 -16.035156 11.28125 -15.816406 10.78125 -15.453125 C 10.28125 -15.097656 9.691406 -14.648438 9.015625 -14.109375 C 8.710938 -13.828125 8.429688 -13.628906 8.171875 -13.515625 C 7.921875 -13.410156 7.675781 -13.410156 7.4375 -13.515625 C 7.125 -13.648438 6.960938 -13.867188 6.953125 -14.171875 C 6.941406 -14.484375 7.039062 -14.859375 7.25 -15.296875 C 7.65625 -16.160156 8.03125 -16.882812 8.375 -17.46875 C 8.71875 -18.050781 9.039062 -18.535156 9.34375 -18.921875 C 9.695312 -19.328125 10.082031 -19.5625 10.5 -19.625 C 10.914062 -19.695312 11.554688 -19.550781 12.421875 -19.1875 L 24.546875 -14.015625 C 25.441406 -13.640625 26.015625 -13.273438 26.265625 -12.921875 C 26.515625 -12.566406 26.59375 -12.132812 26.5 -11.625 C 26.4375 -11.125 26.316406 -10.546875 26.140625 -9.890625 C 25.972656 -9.234375 25.710938 -8.46875 25.359375 -7.59375 C 25.203125 -7.15625 25.007812 -6.820312 24.78125 -6.59375 C 24.5625 -6.375 24.285156 -6.335938 23.953125 -6.484375 C 23.710938 -6.585938 23.546875 -6.765625 23.453125 -7.015625 C 23.367188 -7.273438 23.3125 -7.613281 23.28125 -8.03125 C 23.195312 -9.320312 23.046875 -10.335938 22.828125 -11.078125 C 22.617188 -11.828125 22.070312 -12.390625 21.1875 -12.765625 C 20.394531 -13.097656 19.816406 -12.847656 19.453125 -12.015625 Z M 19.453125 -12.015625 "
           id="path14" />
      </g>
    </g>
  </g>
  <g
     fill="#1c1c1c"
     fill-opacity="1"
     id="g20">
    <g
       transform="translate(150.054415, 284.608811)"
       id="g19">
      <g
         id="g18">
        <path
           d="M 4.234375 -4.890625 L 6.8125 -15.640625 C 7.050781 -16.609375 7.117188 -17.335938 7.015625 -17.828125 C 6.910156 -18.316406 6.738281 -18.691406 6.5 -18.953125 C 6.269531 -19.222656 6.078125 -19.472656 5.921875 -19.703125 C 5.765625 -19.941406 5.734375 -20.269531 5.828125 -20.6875 C 5.921875 -21.0625 6.113281 -21.289062 6.40625 -21.375 C 6.695312 -21.46875 7.195312 -21.425781 7.90625 -21.25 L 13.640625 -19.875 C 14.304688 -19.71875 14.757812 -19.53125 15 -19.3125 C 15.238281 -19.101562 15.3125 -18.8125 15.21875 -18.4375 C 15.144531 -18.101562 15.007812 -17.863281 14.8125 -17.71875 C 14.625 -17.582031 14.410156 -17.472656 14.171875 -17.390625 C 13.929688 -17.316406 13.675781 -17.1875 13.40625 -17 C 13.144531 -16.820312 12.882812 -16.535156 12.625 -16.140625 C 12.375 -15.742188 12.15625 -15.160156 11.96875 -14.390625 L 9.390625 -3.640625 C 9.160156 -2.679688 9.097656 -1.953125 9.203125 -1.453125 C 9.304688 -0.953125 9.476562 -0.566406 9.71875 -0.296875 C 9.957031 -0.0351562 10.15625 0.210938 10.3125 0.453125 C 10.476562 0.691406 10.507812 1.019531 10.40625 1.4375 C 10.320312 1.8125 10.128906 2.039062 9.828125 2.125 C 9.535156 2.207031 9.035156 2.164062 8.328125 2 L 2.59375 0.625 C 1.925781 0.457031 1.46875 0.265625 1.21875 0.046875 C 0.976562 -0.160156 0.898438 -0.453125 0.984375 -0.828125 C 1.066406 -1.160156 1.203125 -1.394531 1.390625 -1.53125 C 1.578125 -1.675781 1.789062 -1.789062 2.03125 -1.875 C 2.28125 -1.96875 2.539062 -2.097656 2.8125 -2.265625 C 3.09375 -2.441406 3.351562 -2.726562 3.59375 -3.125 C 3.84375 -3.519531 4.054688 -4.109375 4.234375 -4.890625 Z M 4.234375 -4.890625 "
           id="path17" />
      </g>
    </g>
  </g>
  <g
     fill="#1c1c1c"
     fill-opacity="1"
     id="g23">
    <g
       transform="translate(167.617502, 288.630156)"
       id="g22">
      <g
         id="g21">
        <path
           d="M 10.125 1.015625 C 8.945312 0.929688 7.96875 0.742188 7.1875 0.453125 C 6.414062 0.171875 5.828125 0.015625 5.421875 -0.015625 C 5.078125 -0.0351562 4.800781 0.00390625 4.59375 0.109375 C 4.394531 0.210938 4.222656 0.316406 4.078125 0.421875 C 3.929688 0.535156 3.738281 0.585938 3.5 0.578125 C 3.238281 0.554688 3 0.414062 2.78125 0.15625 C 2.570312 -0.09375 2.4375 -0.566406 2.375 -1.265625 C 2.289062 -2.171875 2.226562 -3.015625 2.1875 -3.796875 C 2.144531 -4.578125 2.128906 -5.332031 2.140625 -6.0625 C 2.148438 -6.5625 2.222656 -6.945312 2.359375 -7.21875 C 2.503906 -7.488281 2.738281 -7.613281 3.0625 -7.59375 C 3.375 -7.570312 3.609375 -7.441406 3.765625 -7.203125 C 3.929688 -6.960938 4.164062 -6.554688 4.46875 -5.984375 C 4.757812 -5.421875 5.15625 -4.789062 5.65625 -4.09375 C 6.15625 -3.394531 6.816406 -2.785156 7.640625 -2.265625 C 8.460938 -1.742188 9.46875 -1.441406 10.65625 -1.359375 C 11.664062 -1.265625 12.398438 -1.46875 12.859375 -1.96875 C 13.328125 -2.46875 13.601562 -3.023438 13.6875 -3.640625 C 13.726562 -4.304688 13.515625 -4.921875 13.046875 -5.484375 C 12.578125 -6.046875 11.957031 -6.582031 11.1875 -7.09375 C 10.425781 -7.613281 9.628906 -8.128906 8.796875 -8.640625 C 7.628906 -9.359375 6.601562 -10.035156 5.71875 -10.671875 C 4.832031 -11.304688 4.15625 -12.03125 3.6875 -12.84375 C 3.226562 -13.664062 3.039062 -14.695312 3.125 -15.9375 C 3.21875 -17.195312 3.660156 -18.304688 4.453125 -19.265625 C 5.253906 -20.222656 6.300781 -20.945312 7.59375 -21.4375 C 8.894531 -21.9375 10.3125 -22.132812 11.84375 -22.03125 C 12.65625 -21.96875 13.382812 -21.832031 14.03125 -21.625 C 14.6875 -21.414062 15.1875 -21.300781 15.53125 -21.28125 C 15.957031 -21.25 16.269531 -21.304688 16.46875 -21.453125 C 16.664062 -21.609375 16.9375 -21.671875 17.28125 -21.640625 C 17.570312 -21.617188 17.816406 -21.492188 18.015625 -21.265625 C 18.210938 -21.046875 18.359375 -20.59375 18.453125 -19.90625 C 18.546875 -19.269531 18.617188 -18.609375 18.671875 -17.921875 C 18.734375 -17.234375 18.75 -16.546875 18.71875 -15.859375 C 18.726562 -15.367188 18.648438 -14.984375 18.484375 -14.703125 C 18.316406 -14.429688 18.050781 -14.304688 17.6875 -14.328125 C 17.40625 -14.347656 17.160156 -14.488281 16.953125 -14.75 C 16.742188 -15.007812 16.476562 -15.410156 16.15625 -15.953125 C 15.820312 -16.492188 15.425781 -17.054688 14.96875 -17.640625 C 14.519531 -18.222656 13.988281 -18.71875 13.375 -19.125 C 12.769531 -19.53125 12.082031 -19.757812 11.3125 -19.8125 C 10.425781 -19.882812 9.722656 -19.703125 9.203125 -19.265625 C 8.691406 -18.835938 8.410156 -18.257812 8.359375 -17.53125 C 8.296875 -16.613281 8.648438 -15.800781 9.421875 -15.09375 C 10.203125 -14.382812 11.425781 -13.519531 13.09375 -12.5 C 14.34375 -11.769531 15.441406 -11.070312 16.390625 -10.40625 C 17.335938 -9.75 18.070312 -9.023438 18.59375 -8.234375 C 19.113281 -7.441406 19.332031 -6.457031 19.25 -5.28125 C 19.164062 -4.1875 18.859375 -3.226562 18.328125 -2.40625 C 17.796875 -1.59375 17.097656 -0.921875 16.234375 -0.390625 C 15.367188 0.140625 14.40625 0.523438 13.34375 0.765625 C 12.289062 1.003906 11.21875 1.085938 10.125 1.015625 Z M 10.125 1.015625 "
           id="path20" />
      </g>
    </g>
  </g>
  <g
     fill="#1c1c1c"
     fill-opacity="1"
     id="g26">
    <g
       transform="translate(194.942916, 289.978146)"
       id="g25">
      <g
         id="g24">
        <path
           d="M 5.359375 -6.171875 L 5.078125 -5.015625 C 4.910156 -4.378906 4.867188 -3.910156 4.953125 -3.609375 C 5.046875 -3.304688 5.195312 -3.085938 5.40625 -2.953125 C 5.613281 -2.828125 5.8125 -2.695312 6 -2.5625 C 6.195312 -2.425781 6.316406 -2.195312 6.359375 -1.875 C 6.410156 -1.5 6.289062 -1.226562 6 -1.0625 C 5.707031 -0.90625 5.34375 -0.796875 4.90625 -0.734375 L 1.921875 -0.296875 C 1.359375 -0.222656 0.898438 -0.226562 0.546875 -0.3125 C 0.203125 -0.394531 0.00390625 -0.613281 -0.046875 -0.96875 C -0.0859375 -1.289062 -0.0234375 -1.550781 0.140625 -1.75 C 0.304688 -1.945312 0.523438 -2.15625 0.796875 -2.375 C 1.066406 -2.59375 1.332031 -2.875 1.59375 -3.21875 C 1.863281 -3.5625 2.066406 -4.019531 2.203125 -4.59375 L 5.84375 -19.140625 C 5.957031 -19.734375 5.957031 -20.171875 5.84375 -20.453125 C 5.738281 -20.734375 5.570312 -20.957031 5.34375 -21.125 C 5.113281 -21.300781 4.890625 -21.476562 4.671875 -21.65625 C 4.460938 -21.832031 4.335938 -22.078125 4.296875 -22.390625 C 4.242188 -22.722656 4.304688 -22.976562 4.484375 -23.15625 C 4.671875 -23.332031 4.925781 -23.445312 5.25 -23.5 L 9.1875 -24.046875 C 9.820312 -24.140625 10.320312 -23.898438 10.6875 -23.328125 L 19.828125 -7.296875 C 20.203125 -6.679688 20.546875 -6.234375 20.859375 -5.953125 C 21.179688 -5.671875 21.46875 -5.46875 21.71875 -5.34375 C 21.976562 -5.226562 22.1875 -5.097656 22.34375 -4.953125 C 22.5 -4.804688 22.601562 -4.570312 22.65625 -4.25 C 22.707031 -3.875 22.617188 -3.59375 22.390625 -3.40625 C 22.160156 -3.21875 21.710938 -3.078125 21.046875 -2.984375 L 15.21875 -2.15625 C 14.65625 -2.082031 14.226562 -2.097656 13.9375 -2.203125 C 13.644531 -2.316406 13.472656 -2.5625 13.421875 -2.9375 C 13.367188 -3.28125 13.4375 -3.546875 13.625 -3.734375 C 13.820312 -3.929688 14.023438 -4.128906 14.234375 -4.328125 C 14.441406 -4.535156 14.566406 -4.796875 14.609375 -5.109375 C 14.648438 -5.429688 14.492188 -5.890625 14.140625 -6.484375 L 13.765625 -7.1875 C 13.628906 -7.414062 13.492188 -7.59375 13.359375 -7.71875 C 13.234375 -7.84375 13.039062 -7.921875 12.78125 -7.953125 C 12.53125 -7.984375 12.140625 -7.960938 11.609375 -7.890625 C 11.078125 -7.828125 10.332031 -7.726562 9.375 -7.59375 C 8.414062 -7.457031 7.675781 -7.347656 7.15625 -7.265625 C 6.632812 -7.179688 6.257812 -7.09375 6.03125 -7 C 5.800781 -6.914062 5.644531 -6.804688 5.5625 -6.671875 C 5.488281 -6.546875 5.421875 -6.378906 5.359375 -6.171875 Z M 9.078125 -9.953125 C 10.035156 -10.085938 10.707031 -10.191406 11.09375 -10.265625 C 11.488281 -10.335938 11.691406 -10.4375 11.703125 -10.5625 C 11.722656 -10.695312 11.660156 -10.894531 11.515625 -11.15625 L 8.0625 -17.296875 L 6.4375 -10.640625 C 6.363281 -10.273438 6.347656 -10.019531 6.390625 -9.875 C 6.429688 -9.726562 6.648438 -9.664062 7.046875 -9.6875 C 7.441406 -9.71875 8.117188 -9.804688 9.078125 -9.953125 Z M 9.078125 -9.953125 "
           id="path23" />
      </g>
    </g>
  </g>
  <g
     fill="#1c1c1c"
     fill-opacity="1"
     id="g29">
    <g
       transform="translate(225.133856, 284.93908)"
       id="g28">
      <g
         id="g27">
        <path
           d="M 9.625 -27.828125 L 12.59375 -28.984375 C 13.144531 -29.191406 13.546875 -29.28125 13.796875 -29.25 C 14.054688 -29.21875 14.253906 -29.03125 14.390625 -28.6875 C 14.484375 -28.445312 14.476562 -28.207031 14.375 -27.96875 C 14.28125 -27.738281 14.160156 -27.492188 14.015625 -27.234375 C 13.867188 -26.972656 13.757812 -26.671875 13.6875 -26.328125 C 13.625 -25.984375 13.6875 -25.578125 13.875 -25.109375 L 19.953125 -9.40625 C 20.109375 -8.988281 20.144531 -8.601562 20.0625 -8.25 C 19.988281 -7.894531 19.8125 -7.664062 19.53125 -7.5625 L 19.203125 -7.4375 C 18.941406 -7.332031 18.679688 -7.296875 18.421875 -7.328125 C 18.171875 -7.367188 17.84375 -7.5 17.4375 -7.71875 L -0.46875 -16.71875 L 3.765625 -5.875 C 3.953125 -5.394531 4.179688 -5.050781 4.453125 -4.84375 C 4.722656 -4.644531 4.992188 -4.5 5.265625 -4.40625 C 5.546875 -4.320312 5.804688 -4.226562 6.046875 -4.125 C 6.285156 -4.019531 6.457031 -3.828125 6.5625 -3.546875 C 6.695312 -3.203125 6.664062 -2.929688 6.46875 -2.734375 C 6.28125 -2.535156 5.953125 -2.34375 5.484375 -2.15625 L 2.53125 -1.015625 C 1.96875 -0.796875 1.554688 -0.710938 1.296875 -0.765625 C 1.046875 -0.816406 0.859375 -1.003906 0.734375 -1.328125 C 0.640625 -1.554688 0.640625 -1.785156 0.734375 -2.015625 C 0.828125 -2.253906 0.945312 -2.503906 1.09375 -2.765625 C 1.25 -3.035156 1.351562 -3.335938 1.40625 -3.671875 C 1.46875 -4.003906 1.40625 -4.410156 1.21875 -4.890625 L -3.265625 -16.46875 C -3.398438 -16.820312 -3.515625 -17.109375 -3.609375 -17.328125 C -3.710938 -17.546875 -3.820312 -17.75 -3.9375 -17.9375 C -4.195312 -18.425781 -4.484375 -18.757812 -4.796875 -18.9375 C -5.109375 -19.125 -5.414062 -19.25 -5.71875 -19.3125 C -6.019531 -19.375 -6.289062 -19.460938 -6.53125 -19.578125 C -6.769531 -19.691406 -6.957031 -19.925781 -7.09375 -20.28125 C -7.238281 -20.644531 -7.203125 -20.945312 -6.984375 -21.1875 C -6.765625 -21.4375 -6.34375 -21.6875 -5.71875 -21.9375 L -2.78125 -23.0625 C -2.394531 -23.21875 -2.050781 -23.269531 -1.75 -23.21875 C -1.457031 -23.175781 -1.125 -23.070312 -0.75 -22.90625 L 14.875 -14.9375 L 11.328125 -24.125 C 11.140625 -24.59375 10.90625 -24.929688 10.625 -25.140625 C 10.351562 -25.347656 10.078125 -25.492188 9.796875 -25.578125 C 9.523438 -25.671875 9.269531 -25.773438 9.03125 -25.890625 C 8.789062 -26.003906 8.617188 -26.191406 8.515625 -26.453125 C 8.390625 -26.785156 8.421875 -27.050781 8.609375 -27.25 C 8.796875 -27.445312 9.132812 -27.640625 9.625 -27.828125 Z M 9.625 -27.828125 "
           id="path26" />
      </g>
    </g>
  </g>
  <g
     fill="#1c1c1c"
     fill-opacity="1"
     id="g32">
    <g
       transform="translate(253.960048, 272.421206)"
       id="g31">
      <g
         id="g30">
        <path
           d="M -4.375 -12.53125 C -4.757812 -12.300781 -5.046875 -12.34375 -5.234375 -12.65625 C -5.335938 -12.832031 -5.347656 -13.078125 -5.265625 -13.390625 C -5.191406 -13.710938 -5.125 -14.066406 -5.0625 -14.453125 C -5.007812 -14.847656 -5.097656 -15.234375 -5.328125 -15.609375 C -5.484375 -15.867188 -5.707031 -16.046875 -6 -16.140625 C -6.300781 -16.234375 -6.617188 -16.316406 -6.953125 -16.390625 C -7.296875 -16.460938 -7.632812 -16.582031 -7.96875 -16.75 C -8.3125 -16.925781 -8.617188 -17.242188 -8.890625 -17.703125 C -9.328125 -18.441406 -9.445312 -19.160156 -9.25 -19.859375 C -9.050781 -20.566406 -8.671875 -21.085938 -8.109375 -21.421875 C -7.398438 -21.835938 -6.671875 -21.96875 -5.921875 -21.8125 C -5.179688 -21.664062 -4.503906 -21.078125 -3.890625 -20.046875 C -3.285156 -19.035156 -2.953125 -18.003906 -2.890625 -16.953125 C -2.828125 -15.910156 -2.941406 -14.984375 -3.234375 -14.171875 C -3.523438 -13.359375 -3.90625 -12.8125 -4.375 -12.53125 Z M -4.375 -12.53125 "
           id="path29" />
      </g>
    </g>
  </g>
  <g
     fill="#1d4885"
     fill-opacity="1"
     id="g35">
    <g
       transform="translate(266.3777, 264.658783)"
       id="g34">
      <g
         id="g33">
        <path
           d="M -1.140625 -6.359375 L -7.90625 -15.125 C -8.507812 -15.90625 -9.035156 -16.410156 -9.484375 -16.640625 C -9.929688 -16.878906 -10.332031 -16.988281 -10.6875 -16.96875 C -11.039062 -16.957031 -11.359375 -16.960938 -11.640625 -16.984375 C -11.921875 -17.003906 -12.191406 -17.179688 -12.453125 -17.515625 C -12.691406 -17.828125 -12.753906 -18.125 -12.640625 -18.40625 C -12.523438 -18.6875 -12.175781 -19.050781 -11.59375 -19.5 L -6.9375 -23.09375 C -6.394531 -23.519531 -5.960938 -23.757812 -5.640625 -23.8125 C -5.316406 -23.863281 -5.035156 -23.734375 -4.796875 -23.421875 C -4.585938 -23.148438 -4.488281 -22.898438 -4.5 -22.671875 C -4.507812 -22.441406 -4.554688 -22.203125 -4.640625 -21.953125 C -4.734375 -21.710938 -4.796875 -21.429688 -4.828125 -21.109375 C -4.859375 -20.785156 -4.796875 -20.398438 -4.640625 -19.953125 C -4.492188 -19.515625 -4.179688 -18.984375 -3.703125 -18.359375 L 3.0625 -9.59375 C 3.664062 -8.8125 4.191406 -8.304688 4.640625 -8.078125 C 5.097656 -7.847656 5.503906 -7.738281 5.859375 -7.75 C 6.210938 -7.769531 6.535156 -7.769531 6.828125 -7.75 C 7.117188 -7.726562 7.394531 -7.546875 7.65625 -7.203125 C 7.882812 -6.898438 7.9375 -6.609375 7.8125 -6.328125 C 7.695312 -6.046875 7.351562 -5.679688 6.78125 -5.234375 L 2.109375 -1.625 C 1.566406 -1.207031 1.132812 -0.96875 0.8125 -0.90625 C 0.488281 -0.851562 0.210938 -0.976562 -0.015625 -1.28125 C -0.222656 -1.550781 -0.320312 -1.804688 -0.3125 -2.046875 C -0.3125 -2.285156 -0.269531 -2.523438 -0.1875 -2.765625 C -0.101562 -3.003906 -0.0390625 -3.285156 0 -3.609375 C 0.03125 -3.941406 -0.0234375 -4.328125 -0.171875 -4.765625 C -0.328125 -5.203125 -0.648438 -5.734375 -1.140625 -6.359375 Z M -1.140625 -6.359375 "
           id="path32" />
      </g>
    </g>
  </g>
  <g
     fill="#1d4885"
     fill-opacity="1"
     id="g38">
    <g
       transform="translate(280.669795, 253.546481)"
       id="g37">
      <g
         id="g36">
        <path
           d="M 0.1875 -8.171875 L 0.703125 -7.109375 C 0.972656 -6.503906 1.238281 -6.113281 1.5 -5.9375 C 1.769531 -5.769531 2.023438 -5.703125 2.265625 -5.734375 C 2.503906 -5.765625 2.738281 -5.785156 2.96875 -5.796875 C 3.207031 -5.816406 3.445312 -5.722656 3.6875 -5.515625 C 3.96875 -5.253906 4.050781 -4.96875 3.9375 -4.65625 C 3.820312 -4.34375 3.613281 -4.019531 3.3125 -3.6875 L 1.28125 -1.453125 C 0.90625 -1.035156 0.554688 -0.742188 0.234375 -0.578125 C -0.0859375 -0.421875 -0.382812 -0.46875 -0.65625 -0.71875 C -0.894531 -0.925781 -1.007812 -1.160156 -1 -1.421875 C -1 -1.691406 -0.960938 -2 -0.890625 -2.34375 C -0.828125 -2.6875 -0.800781 -3.070312 -0.8125 -3.5 C -0.820312 -3.925781 -0.96875 -4.410156 -1.25 -4.953125 L -7.75 -18.46875 C -8.03125 -18.988281 -8.300781 -19.320312 -8.5625 -19.46875 C -8.832031 -19.613281 -9.109375 -19.675781 -9.390625 -19.65625 C -9.671875 -19.644531 -9.945312 -19.640625 -10.21875 -19.640625 C -10.5 -19.640625 -10.757812 -19.75 -11 -19.96875 C -11.25 -20.1875 -11.359375 -20.421875 -11.328125 -20.671875 C -11.304688 -20.929688 -11.191406 -21.179688 -10.984375 -21.421875 L -8.296875 -24.375 C -7.867188 -24.851562 -7.332031 -24.984375 -6.6875 -24.765625 L 10.59375 -18.28125 C 11.269531 -18.039062 11.816406 -17.914062 12.234375 -17.90625 C 12.660156 -17.90625 13.007812 -17.9375 13.28125 -18 C 13.5625 -18.0625 13.804688 -18.085938 14.015625 -18.078125 C 14.234375 -18.078125 14.460938 -17.96875 14.703125 -17.75 C 14.992188 -17.488281 15.109375 -17.210938 15.046875 -16.921875 C 14.984375 -16.640625 14.726562 -16.25 14.28125 -15.75 L 10.328125 -11.390625 C 9.941406 -10.960938 9.601562 -10.695312 9.3125 -10.59375 C 9.019531 -10.5 8.726562 -10.582031 8.4375 -10.84375 C 8.1875 -11.070312 8.070312 -11.316406 8.09375 -11.578125 C 8.125 -11.847656 8.15625 -12.128906 8.1875 -12.421875 C 8.21875 -12.710938 8.144531 -12.992188 7.96875 -13.265625 C 7.800781 -13.535156 7.390625 -13.789062 6.734375 -14.03125 L 6 -14.3125 C 5.738281 -14.414062 5.519531 -14.472656 5.34375 -14.484375 C 5.164062 -14.492188 4.96875 -14.425781 4.75 -14.28125 C 4.539062 -14.144531 4.253906 -13.882812 3.890625 -13.5 C 3.523438 -13.113281 3.015625 -12.5625 2.359375 -11.84375 C 1.710938 -11.125 1.210938 -10.5625 0.859375 -10.15625 C 0.515625 -9.757812 0.28125 -9.457031 0.15625 -9.25 C 0.03125 -9.039062 -0.0195312 -8.859375 0 -8.703125 C 0.03125 -8.546875 0.09375 -8.367188 0.1875 -8.171875 Z M 0.640625 -13.453125 C 1.285156 -14.171875 1.734375 -14.679688 1.984375 -14.984375 C 2.234375 -15.296875 2.320312 -15.503906 2.25 -15.609375 C 2.175781 -15.722656 2.003906 -15.832031 1.734375 -15.9375 L -4.84375 -18.453125 L -1.828125 -12.296875 C -1.671875 -11.972656 -1.523438 -11.765625 -1.390625 -11.671875 C -1.265625 -11.585938 -1.054688 -11.679688 -0.765625 -11.953125 C -0.484375 -12.234375 -0.015625 -12.734375 0.640625 -13.453125 Z M 0.640625 -13.453125 "
           id="path35" />
      </g>
    </g>
  </g>
</svg>
